<?xml version="1.0" standalone="no"?>
<!DOCTYPE svg PUBLIC "-//W3C//DTD SVG 20010904//EN"
 "http://www.w3.org/TR/2001/REC-SVG-20010904/DTD/svg10.dtd">
<svg version="1.0" xmlns="http://www.w3.org/2000/svg"
 width="384.000000pt" height="384.000000pt" viewBox="0 0 384.000000 384.000000"
 preserveAspectRatio="xMidYMid meet">
<metadata>
Created by potrace 1.11, written by Peter Selinger 2001-2013
</metadata>
<g transform="translate(0.000000,384.000000) scale(0.100000,-0.100000)"
fill="#000000" stroke="none">
<path d="M1428 3530 c-142 -26 -296 -94 -376 -165 -168 -151 -383 -650 -526
-1220 -102 -408 -145 -857 -101 -1064 42 -199 156 -370 320 -480 121 -81 165
-93 347 -99 179 -5 299 6 513 49 612 121 1253 398 1567 676 146 130 251 288
278 420 35 168 -21 371 -143 515 l-32 38 -790 -180 c-434 -99 -802 -180 -817
-180 -30 0 -58 23 -58 48 0 40 93 320 342 1032 114 328 126 391 86 450 -30 45
-162 113 -273 140 -90 23 -266 33 -337 20z"/>
<path d="M2383 3512 c-92 -93 -278 -575 -481 -1247 -50 -167 -66 -231 -57
-233 8 -2 91 13 186 33 535 110 1010 233 1224 316 186 73 220 103 218 196 -3
125 -115 284 -389 553 -274 269 -469 400 -605 408 -62 4 -67 2 -96 -26z"/>
</g>
</svg>
